<svg xmlns="http://www.w3.org/2000/svg" xmlns:xlink="http://www.w3.org/1999/xlink" id="Capa_1" x="0" y="0" version="1.1" viewBox="0 0 512 512" xml:space="preserve" style="enable-background:new 0 0 512 512"><path style="fill:#92ecf6" d="M497,0H376.5c-8.284,0-15,6.716-15,15v105.5H256c-8.284,0-15,6.716-15,15V241H135.5	c-8.284,0-15,6.716-15,15v105.5H15c-8.284,0-15,6.716-15,15V497c0,8.284,6.716,15,15,15h482c8.284,0,15-6.716,15-15V15	C512,6.716,505.284,0,497,0z"/><path style="fill:#2fd6f0" d="M497,0H376.5c-8.284,0-15,6.716-15,15v105.5H256c-8.284,0-15,6.716-15,15V241v271h256	c8.284,0,15-6.716,15-15V15C512,6.716,505.284,0,497,0z"/></svg>