<svg xmlns="http://www.w3.org/2000/svg" xmlns:xlink="http://www.w3.org/1999/xlink" width="1400" height="1000" viewBox="0 0 1400 1000" zoomAndPan="disable"><style type="text/css">@keyframes foo{0%,40%{opacity:1}20%,80%{opacity:.25}60%{opacity:.55}}@keyframes bar{0%{opacity:1}20%,60%{opacity:.75}40%{opacity:.25}80%{opacity:.35}}polygon.a1{animation:foo ease 10s infinite}polygon.a2{animation:bar ease 10s infinite}polygon.f1{fill:rgba(255,255,255,.0125)}polygon.f2{fill:rgba(255,255,255,.025)}polygon.f3{fill:rgba(255,255,255,.0375)}polygon.f4{fill:rgba(255,255,255,.075)}polygon.f5{fill:rgba(255,255,255,.1)}polygon.f6{fill:rgba(255,255,255,.125)}polygon.d1{animation-delay:.5s}polygon.d2{animation-delay:.25s}polygon.d3{animation-delay:2s}polygon.d4{animation-delay:1.5s}polygon.d5{animation-delay:.75s}polygon.d6{animation-delay:.25s}polygon.d7{animation-delay:1s}polygon.d8{animation-delay:1.25s}polygon.d9{animation-delay:.9s}polygon.d10{animation-delay:1s}</style><polygon points="180 850 115 962.583 -15 962.583 -80 850 -15 737.417 115 737.417 180 850" class="a1 f5 d1"/><polygon points="374.757 962.667 309.757 1075.25 179.757 1075.25 114.757 962.667 179.757 850.083 309.757 850.083 374.757 962.667" class="a2 f6 d3"/><polygon points="569.513 1075.333 504.513 1187.917 374.513 1187.917 309.513 1075.333 374.513 962.75 504.513 962.75 569.513 1075.333" class="a1 f5 d4"/><polygon points="764.27 1188 699.27 1300.583 569.27 1300.583 504.27 1188 569.27 1075.417 699.27 1075.417 764.27 1188" class="a1 f4 d8"/><polygon points="959.026 1300.667 894.026 1413.25 764.026 1413.25 699.026 1300.667 764.026 1188.083 894.026 1188.083 959.026 1300.667" class="a2 f3 d2"/><polygon points="1153.783 1413.333 1088.783 1525.917 958.783 1525.917 893.783 1413.333 958.783 1300.75 1088.783 1300.75 1153.783 1413.333" class="a1 f2 d1"/><polygon points="1348.539 1526 1283.539 1638.583 1153.539 1638.583 1088.539 1526 1153.539 1413.417 1283.539 1413.417 1348.539 1526" class="a2 f5 d5"/><polygon points="1543.296 1638.667 1478.296 1751.25 1348.296 1751.25 1283.296 1638.667 1348.296 1526.083 1478.296 1526.083 1543.296 1638.667" class="a2 f4 d2"/><polygon points="1738.052 1751.333 1673.052 1863.917 1543.052 1863.917 1478.052 1751.333 1543.052 1638.75 1673.052 1638.75 1738.052 1751.333" class="a1 f6 d7"/><polygon points="180 624.667 115 737.25 -15 737.25 -80 624.667 -15 512.083 115 512.083 180 624.667" class="a2 f4 d8"/><polygon points="374.757 737.333 309.757 849.917 179.757 849.917 114.757 737.333 179.757 624.75 309.757 624.75 374.757 737.333" class="a1 f5 d4"/><polygon points="569.513 850 504.513 962.583 374.513 962.583 309.513 850 374.513 737.417 504.513 737.417 569.513 850" class="a1 f6 d2"/><polygon points="764.27 962.667 699.27 1075.25 569.27 1075.25 504.27 962.667 569.27 850.083 699.27 850.083 764.27 962.667" class="a2 f4 d1"/><polygon points="959.026 1075.333 894.026 1187.917 764.026 1187.917 699.026 1075.333 764.026 962.75 894.026 962.75 959.026 1075.333" class="a2 f4 d9"/><polygon points="1153.783 1188 1088.783 1300.583 958.783 1300.583 893.783 1188 958.783 1075.417 1088.783 1075.417 1153.783 1188" class="a1 f3 d10"/><polygon points="1348.539 1300.667 1283.539 1413.25 1153.539 1413.25 1088.539 1300.667 1153.539 1188.083 1283.539 1188.083 1348.539 1300.667" class="a2 f4 d4"/><polygon points="1543.296 1413.333 1478.296 1525.917 1348.296 1525.917 1283.296 1413.333 1348.296 1300.75 1478.296 1300.75 1543.296 1413.333" class="a1 f3 d3"/><polygon points="1738.052 1526 1673.052 1638.583 1543.052 1638.583 1478.052 1526 1543.052 1413.417 1673.052 1413.417 1738.052 1526" class="a2 f2 d6"/><polygon points="180 399.333 115 511.917 -15 511.917 -80 399.333 -15 286.75 115 286.75 180 399.333" class="a1 f5 d10"/><polygon points="374.757 512 309.757 624.583 179.757 624.583 114.757 512 179.757 399.417 309.757 399.417 374.757 512" class="a2 f4 d7"/><polygon points="569.513 624.667 504.513 737.25 374.513 737.25 309.513 624.667 374.513 512.083 504.513 512.083 569.513 624.667" class="a1 f4 d5"/><polygon points="764.27 737.333 699.27 849.917 569.27 849.917 504.27 737.333 569.27 624.75 699.27 624.75 764.27 737.333" class="a2 f5 d8"/><polygon points="959.026 850 894.026 962.583 764.026 962.583 699.026 850 764.026 737.417 894.026 737.417 959.026 850" class="a2 f6 d4"/><polygon points="1153.783 962.667 1088.783 1075.25 958.783 1075.25 893.783 962.667 958.783 850.083 1088.783 850.083 1153.783 962.667" class="a2 f4 d9"/><polygon points="1348.539 1075.333 1283.539 1187.917 1153.539 1187.917 1088.539 1075.333 1153.539 962.75 1283.539 962.75 1348.539 1075.333" class="a1 f2 d2"/><polygon points="1543.296 1188 1478.296 1300.583 1348.296 1300.583 1283.296 1188 1348.296 1075.417 1478.296 1075.417 1543.296 1188" class="a1 f3 d9"/><polygon points="959.026 1300.667 894.026 1413.25 764.026 1413.25 699.026 1300.667 764.026 1188.083 894.026 1188.083 959.026 1300.667" class="a2 f4 d4"/><polygon points="180 174 115 286.583 -15 286.583 -80 174 -15 61.417 115 61.417 180 174" class="a1 f3 d3"/><polygon points="374.757 286.667 309.757 399.25 179.757 399.25 114.757 286.667 179.757 174.083 309.757 174.083 374.757 286.667" class="a1 f2 d6"/><polygon points="569.513 399.333 504.513 511.917 374.513 511.917 309.513 399.333 374.513 286.75 504.513 286.75 569.513 399.333" class="a2 f3 d4"/><polygon points="764.27 512 699.27 624.583 569.27 624.583 504.27 512 569.27 399.417 699.27 399.417 764.27 512" class="a2 f3 d2"/><polygon points="959.026 624.667 894.026 737.25 764.026 737.25 699.026 624.667 764.026 512.083 894.026 512.083 959.026 624.667" class="a1 f4 d4"/><polygon points="1153.783 737.333 1088.783 849.917 958.783 849.917 893.783 737.333 958.783 624.75 1088.783 624.75 1153.783 737.333" class="a2 f5 d9"/><polygon points="1348.539 850 1283.539 962.583 1153.539 962.583 1088.539 850 1153.539 737.417 1283.539 737.417 1348.539 850" class="a1 f4 d7"/><polygon points="1543.296 962.667 1478.296 1075.25 1348.296 1075.25 1283.296 962.667 1348.296 850.083 1478.296 850.083 1543.296 962.667" class="a2 f2 d2"/><polygon points="1738.052 1075.333 1673.052 1187.917 1543.052 1187.917 1478.052 1075.333 1543.052 962.75 1673.052 962.75 1738.052 1075.333" class="a1 f1 d9"/><polygon points="180 -51.333 115 61.25 -15 61.25 -80 -51.333 -15 -163.917 115 -163.917 180 -51.333" class="a2 f1 d2"/><polygon points="374.757 61.333 309.757 173.917 179.757 173.917 114.757 61.333 179.757 -51.25 309.757 -51.25 374.757 61.333" class="a1 f2 d10"/><polygon points="569.513 174 504.513 286.583 374.513 286.583 309.513 174 374.513 61.417 504.513 61.417 569.513 174" class="a2 f1 d4"/><polygon points="764.27 286.667 699.27 399.25 569.27 399.25 504.27 286.667 569.27 174.083 699.27 174.083 764.27 286.667" class="a1 f2 d9"/><polygon points="959.026 399.333 894.026 511.917 764.026 511.917 699.026 399.333 764.026 286.75 894.026 286.75 959.026 399.333" class="a1 f1 d3"/><polygon points="1153.783 512 1088.783 624.583 958.783 624.583 893.783 512 958.783 399.417 1088.783 399.417 1153.783 512" class="a1 f3 d7"/><polygon points="1348.539 624.667 1283.539 737.25 1153.539 737.25 1088.539 624.667 1153.539 512.083 1283.539 512.083 1348.539 624.667" class="a2 f2 d2"/><polygon points="1543.296 737.333 1478.296 849.917 1348.296 849.917 1283.296 737.333 1348.296 624.75 1478.296 624.75 1543.296 737.333" class="a1 f1 d9"/><polygon points="1738.052 850 1673.052 962.583 1543.052 962.583 1478.052 850 1543.052 737.417 1673.052 737.417 1738.052 850" class="a2 f3 d5"/><polygon points="374.757 -164 309.757 -51.417 179.757 -51.417 114.757 -164 179.757 -276.583 309.757 -276.583 374.757 -164" class="a1 f1 d3"/><polygon points="569.513 -51.333 504.513 61.25 374.513 61.25 309.513 -51.333 374.513 -163.917 504.513 -163.917 569.513 -51.333" class="a2 f2 d5"/><polygon points="959.026 174 894.026 286.583 764.026 286.583 699.026 174 764.026 61.417 894.026 61.417 959.026 174" class="a1 f1 d2"/><polygon points="1348.539 399.333 1283.539 511.917 1153.539 511.917 1088.539 399.333 1153.539 286.75 1283.539 286.75 1348.539 399.333" class="a1 f1 d1"/><polygon points="1543.296 512 1478.296 624.583 1348.296 624.583 1283.296 512 1348.296 399.417 1478.296 399.417 1543.296 512" class="a2 f2 d10"/><polygon points="1932.809 737.333 1867.809 849.917 1737.809 849.917 1672.809 737.333 1737.809 624.75 1867.809 624.75 1932.809 737.333" class="a2 f1 d7"/><polygon points="2127.566 850 2062.566 962.583 1932.566 962.583 1867.566 850 1932.566 737.417 2062.566 737.417 2127.566 850" class="a2 f2 d4"/><polygon points="374.757 -389.333 309.757 -276.75 179.757 -276.75 114.757 -389.333 179.757 -501.917 309.757 -501.917 374.757 -389.333" class="a2 f1 d9"/><polygon points="959.026 -51.333 894.026 61.25 764.026 61.25 699.026 -51.333 764.026 -163.917 894.026 -163.917 959.026 -51.333" class="a1 f1 d1"/><polygon points="1348.539 174 1283.539 286.583 1153.539 286.583 1088.539 174 1153.539 61.417 1283.539 61.417 1348.539 174" class="a2 f1 d6"/><polygon points="1932.809 512 1867.809 624.583 1737.809 624.583 1672.809 512 1737.809 399.417 1867.809 399.417 1932.809 512" class="a1 f2 d2"/></svg>