<svg xmlns="http://www.w3.org/2000/svg" width="23.997" height="17.328" viewBox="0 0 23.997 17.328"><g id="Group_1132" data-name="Group 1132" opacity=".62"><path id="Icon_awesome-sort-amount-down" fill="#c4dbf2" d="M27.008,2.25H11.27a.984.984,0,0,0-.984.984V5.2a.984.984,0,0,0,.984.984H27.008a.984.984,0,0,0,.984-.984V3.234A.984.984,0,0,0,27.008,2.25Z" data-name="Icon awesome-sort-amount-down" transform="translate(-3.995 11.144)"/><path id="Icon_awesome-sort-amount-down-2" fill="#c4dbf2" d="M27.008,2.25H11.27a.984.984,0,0,0-.984.984V5.2a.984.984,0,0,0,.984.984H27.008a.984.984,0,0,0,.984-.984V3.234A.984.984,0,0,0,27.008,2.25Z" data-name="Icon awesome-sort-amount-down" transform="translate(-3.995 4.45)"/><path id="Icon_awesome-sort-amount-down-3" fill="#c4dbf2" d="M27.008,2.25H11.27a.984.984,0,0,0-.984.984V5.2a.984.984,0,0,0,.984.984H27.008a.984.984,0,0,0,.984-.984V3.234A.984.984,0,0,0,27.008,2.25Z" data-name="Icon awesome-sort-amount-down" transform="translate(-3.995 -2.243)"/><path id="Icon_awesome-sort-amount-down-4" fill="#c4dbf2" d="M13.866,19.884h-2.6a.984.984,0,0,0-.984.984v1.967a.984.984,0,0,0,.984.984h2.6a.984.984,0,0,0,.984-.984V20.868A.984.984,0,0,0,13.866,19.884Z" data-name="Icon awesome-sort-amount-down" transform="translate(-10.286 -6.497)"/><path id="Icon_awesome-sort-amount-down-5" fill="#c4dbf2" d="M13.866,19.884h-2.6a.984.984,0,0,0-.984.984v1.967a.984.984,0,0,0,.984.984h2.6a.984.984,0,0,0,.984-.984V20.868A.984.984,0,0,0,13.866,19.884Z" data-name="Icon awesome-sort-amount-down" transform="translate(-10.286 -13.19)"/><path id="Icon_awesome-sort-amount-down-6" fill="#c4dbf2" d="M13.866,19.884h-2.6a.984.984,0,0,0-.984.984v1.967a.984.984,0,0,0,.984.984h2.6a.984.984,0,0,0,.984-.984V20.868A.984.984,0,0,0,13.866,19.884Z" data-name="Icon awesome-sort-amount-down" transform="translate(-10.286 -19.884)"/></g></svg>